<svg width="21" height="21" viewBox="0 0 21 21" fill="none" xmlns="http://www.w3.org/2000/svg">
<path d="M20.7423 15.8915C20.5683 17.2449 19.9076 18.4887 18.8835 19.3904C17.8595 20.2922 16.5421 20.7903 15.1776 20.7917C7.22431 20.7917 0.753906 14.3213 0.753906 6.36798C0.755289 5.00348 1.25338 3.68616 2.15513 2.66209C3.05687 1.63803 4.30059 0.977274 5.65395 0.803267C5.99836 0.761569 6.34701 0.832554 6.6477 1.00559C6.94839 1.17863 7.18494 1.44441 7.32193 1.76314L9.33441 6.45865C9.4388 6.70154 9.48135 6.96651 9.45827 7.22986C9.43519 7.49322 9.3472 7.74675 9.20217 7.96777L7.53595 10.5138L7.53576 10.514C8.28817 12.0437 9.52899 13.2791 11.0621 14.0247L13.5705 12.3526C13.7921 12.2043 14.0473 12.1138 14.3129 12.0894C14.5785 12.065 14.8459 12.1075 15.0909 12.2129L19.7824 14.2236C20.101 14.3606 20.3668 14.5972 20.5398 14.8979C20.7129 15.1985 20.7839 15.5471 20.7423 15.8915Z" fill="white"/>
</svg>