<svg width="21" height="19" viewBox="0 0 21 19" fill="none" xmlns="http://www.w3.org/2000/svg">
<path d="M19.7205 0.986101C19.5169 0.810309 19.2691 0.693566 19.0039 0.648513C18.7387 0.60346 18.4663 0.631815 18.2161 0.730507L1.17171 7.42653C0.874622 7.54324 0.623314 7.75301 0.45539 8.02446C0.287466 8.29591 0.211955 8.61444 0.240155 8.93238C0.268355 9.25032 0.39875 9.55059 0.611829 9.78824C0.824909 10.0259 1.10922 10.1882 1.42221 10.2508L5.7516 11.1167V16.5243C5.75135 16.8166 5.83786 17.1025 6.00019 17.3456C6.16251 17.5888 6.39334 17.7783 6.66344 17.8902C6.93355 18.0021 7.23078 18.0313 7.5175 17.9741C7.80421 17.917 8.06752 17.776 8.27407 17.5691L10.67 15.1732L14.3065 18.3733C14.5742 18.611 14.9197 18.7425 15.2778 18.743C15.4334 18.7428 15.5881 18.7183 15.7362 18.6703C15.9804 18.5928 16.2 18.4527 16.3731 18.2638C16.5463 18.075 16.6669 17.8441 16.7229 17.5941L20.1966 2.43597C20.2571 2.17385 20.2447 1.90019 20.1608 1.64462C20.0769 1.38905 19.9246 1.16132 19.7205 0.986101ZM15.2826 17.264L7.67346 10.5679L18.6306 2.65445L15.2826 17.264Z" fill="white"/>
</svg>