<svg width="21" height="17" viewBox="0 0 21 17" fill="none" xmlns="http://www.w3.org/2000/svg">
<path d="M20.1128 3.61251C19.3999 4.63345 18.5245 5.53063 17.5213 6.26836C17.3953 8.18979 16.786 10.0483 15.7499 11.6713C14.7138 13.2943 13.2845 14.6294 11.5946 15.5524C9.90475 16.4755 8.00908 16.9568 6.08354 16.9516C4.15799 16.9463 2.26496 16.4547 0.580141 15.5225C0.450688 15.4505 0.348618 15.3377 0.289763 15.2018C0.230908 15.0658 0.218557 14.9143 0.254627 14.7706C0.290697 14.6269 0.373171 14.4992 0.489256 14.4071C0.605342 14.3151 0.748551 14.2639 0.896671 14.2616C2.54135 14.2386 4.15518 13.8118 5.5962 13.0187C3.88367 11.6131 2.61592 9.74063 1.9468 7.62857C1.27767 5.5165 1.23595 3.25563 1.82669 1.12031C1.86126 0.995613 1.93109 0.883541 2.02779 0.797554C2.1245 0.711566 2.24397 0.655319 2.37185 0.635565C2.49974 0.61581 2.63061 0.633389 2.74875 0.686189C2.86689 0.73899 2.96729 0.824769 3.03787 0.933226C3.76532 2.05665 4.70968 3.02356 5.81563 3.77731C6.92157 4.53106 8.16684 5.05647 9.47846 5.32275C9.50117 4.47685 9.78935 3.65951 10.3022 2.98642C10.8151 2.31334 11.5266 1.8186 12.3362 1.57225C13.1458 1.32589 14.0123 1.3404 14.8132 1.6137C15.614 1.88701 16.3086 2.40528 16.7987 3.09515C17.6667 3.0369 18.5235 2.86704 19.3481 2.58977C19.4823 2.5447 19.6272 2.54313 19.7623 2.58526C19.8974 2.6274 20.0158 2.71111 20.1005 2.82445C20.1853 2.93779 20.2321 3.07498 20.2343 3.21648C20.2365 3.35799 20.194 3.49658 20.1128 3.61251Z" fill="white"/>
</svg>